# xmcd
#
# Track frame offsets:
#	150
#	19482
#	38018
#	58797
#	75795
#	91021
#	114039
#	128378
#	147881
#	159707
#	178496
#	191716
#	206980
#	221463
#
# Disc length: 3191 seconds
#
# Revision: 1
# Processed by: cddbd v1.5.2PL0 Copyright (c) Steve Scherf et al.
# Submitted via: audiograbber 1.83.01
#
DISCID=ba0c750e
DTITLE=Po'Girl - Follow Your Bliss
DYEAR=1900
DGENRE=
TTITLE0=Kathy
TTITLE1=Montana
TTITLE2=When we are love
TTITLE3=Pink Shoes
TTITLE4=Follow your bliss
TTITLE5=Western Skies
TTITLE6=Maudite Guerre
TTITLE7=Go Easy
TTITLE8=In the Days
TTITLE9=To the morning
TTITLE10=Kiss me in the dark
TTITLE11=Fernanda
TTITLE12=As long as we go
TTITLE13=Benediction
EXTD=
EXTT0=
EXTT1=
EXTT2=
EXTT3=
EXTT4=
EXTT5=
EXTT6=
EXTT7=
EXTT8=
EXTT9=
EXTT10=
EXTT11=
EXTT12=
EXTT13=
PLAYORDER=
